<svg width="99" height="48" viewBox="0 0 99 48" fill="none" xmlns="http://www.w3.org/2000/svg">
<g clip-path="url(#clip0_13226_96)">
<path d="M42.1258 0.712134C41.5068 1.12568 41.0553 1.64773 40.6482 2.26419C39.1482 2.28967 37.737 2.71898 36.6716 3.82541C35.6562 4.8799 35.31 6.15979 35.3574 7.5932L35.3619 7.7016C35.5507 8.98811 36.0693 10.0422 37.1182 10.8358C37.3664 11.0237 37.9186 11.2969 38.4809 11.5751C39.206 11.9339 39.9479 12.301 40.0764 12.5039C40.5189 13.1363 41.7011 13.5056 42.4337 13.6401C43.5806 13.8505 44.6043 13.7562 45.7081 13.4292C47.2818 15.869 47.9457 18.4313 48.3107 21.2924L48.1806 21.5345C47.8523 21.2459 47.5817 20.8016 47.3133 20.3607C47.1228 20.0477 46.9332 19.7365 46.7249 19.484C44.6318 16.9442 41.4511 15.1476 38.0827 15.3372C37.4169 15.3746 35.8827 15.5296 35.3627 15.9745C35.2842 16.5913 35.9589 17.5635 36.3426 18.0546C38.5878 20.9288 42.2388 21.6357 45.6359 22.2935C45.9479 22.3539 46.2577 22.4139 46.5642 22.4751C46.5867 22.4796 46.6106 22.4841 46.6356 22.4889C46.8959 22.5383 47.267 22.6088 47.3314 22.8605L47.2962 22.9527C43.8277 22.369 40.206 22.7899 37.2822 24.8859C34.783 26.6775 33.3482 29.5055 32.8638 32.4975C32.2887 36.0488 32.8889 40.0231 35.0266 42.9798C36.7549 45.3703 39.3076 46.887 42.2136 47.3464C45.4253 47.854 48.9151 47.2572 51.5694 45.3137C54.0882 43.4694 55.5142 40.6503 55.9762 37.608C56.532 33.9465 56.0214 30.054 53.7794 27.0232C52.8112 25.7143 51.6687 24.8238 50.277 24.0033C50.2468 23.9856 50.2164 23.9687 50.1863 23.952C50.0153 23.8571 49.8552 23.7682 49.8083 23.5539C52.9291 22.4859 56.0159 21.1998 58.5005 18.9645C59.7058 17.8801 61.8066 15.3531 61.8927 13.7541C61.7515 13.5277 61.7074 13.4867 61.4472 13.4102C60.9079 13.2511 60.2286 13.2297 59.6617 13.2175C56.6478 13.1524 54.1037 14.5301 52.2311 16.8368C52.12 16.9734 51.9545 17.2308 51.7701 17.5177C51.4106 18.0768 50.9791 18.7479 50.738 18.856C50.7164 18.8656 50.6946 18.874 50.6727 18.8824C50.661 18.8869 50.6492 18.8914 50.6376 18.8961C50.839 18.0657 51.1057 17.2422 51.3723 16.4192C51.5667 15.8186 51.7612 15.2184 51.9301 14.6161L52.0183 14.5464C54.1455 12.857 55.6685 10.314 55.9641 7.59419C56.1846 5.56958 55.706 3.79861 54.4312 2.20497C54.2205 2.31448 54.0121 2.42752 53.8114 2.55335C52.0061 3.688 51.0335 5.88068 50.599 7.89757C50.1623 9.92306 50.0619 12.848 51.2254 14.6469C50.4932 16.9486 49.7829 19.2571 49.0937 21.5718C48.8114 18.592 47.9281 15.6016 46.368 13.0442C46.6212 12.8139 46.8561 12.5642 47.07 12.2975C47.9633 11.197 49.0286 9.08395 48.8808 7.6437C48.718 7.4345 48.5371 6.45692 48.3831 5.62477C48.2963 5.15543 48.218 4.73235 48.1563 4.51951C47.8542 3.47329 47.4461 2.49501 46.9808 1.51231C46.5285 0.81778 45.8568 0.261089 45.031 0.0778055C44.0067 -0.14948 42.9842 0.138903 42.1258 0.712134ZM43.2024 23.7069C44.6493 23.5641 45.9846 23.7078 47.2432 24.4998C49.2746 25.7785 50.2583 28.1718 50.7688 30.4196C51.6445 34.2809 51.64 40.5555 49.4213 44.0026C48.518 45.4058 47.3535 46.0893 45.7572 46.4356C44.2681 46.5957 42.8494 46.4477 41.5729 45.6054C39.476 44.2216 38.5552 41.5924 38.07 39.2372C37.2573 35.2923 37.1464 29.6189 39.4847 26.124C40.4205 24.7252 41.5852 24.0396 43.2024 23.7069Z" fill="#353C3A"/>
<path d="M40.6476 2.26419C41.0548 1.64773 41.5061 1.12568 42.1252 0.712133C42.9835 0.138903 44.0061 -0.149477 45.0304 0.0778072C45.8562 0.261091 46.5279 0.817777 46.9801 1.51231C45.5654 1.92189 45.0829 2.46568 44.2625 3.68249C44.0468 4.27513 43.862 4.89523 43.8097 5.52701C44.8051 6.40428 45.4447 7.3915 45.5331 8.75024C45.5437 8.91257 45.5557 8.94279 45.467 9.07435L45.1053 8.96738C44.783 9.20283 44.7022 9.60402 44.6421 9.98007C44.5349 10.6517 44.5192 11.3759 44.5324 12.0555C43.7019 11.8125 42.9707 11.7281 42.1064 11.7684C41.3951 11.9444 40.7239 12.1496 40.0758 12.5039C39.8476 12.1436 37.6859 11.2658 37.1176 10.8358C36.0687 10.0422 35.5501 8.98811 35.3613 7.7016L35.3568 7.5932C35.3093 6.15979 35.6556 4.8799 36.6711 3.82541C37.7365 2.71899 39.1476 2.28967 40.6476 2.26419Z" fill="#EAE9E8"/>
<path d="M40.6476 2.26419C41.0548 1.64773 41.5061 1.12568 42.1252 0.712132C42.9835 0.138903 44.0061 -0.149477 45.0304 0.0778072C45.8562 0.261091 46.5279 0.817777 46.9801 1.51231C45.5654 1.92189 45.0829 2.46568 44.2625 3.68249C44.0468 4.27513 43.862 4.89523 43.8097 5.52701L42.8161 5.12615C42.4197 5.13674 41.6387 5.05712 41.2991 5.22849L40.8612 5.44144C40.6924 5.59494 40.4952 5.82631 40.3011 5.93802L39.9342 6.57158L39.6801 6.58724C38.499 6.56606 37.3839 6.69487 36.303 7.20491C35.9974 7.34915 35.6767 7.60588 35.3613 7.7016L35.3568 7.5932C35.3093 6.15979 35.6556 4.8799 36.6711 3.82541C37.7365 2.71899 39.1476 2.28967 40.6476 2.26419Z" fill="#DB8778"/>
<path d="M42.8169 5.12609C42.9978 4.64152 43.1502 4.04569 43.5237 3.67603C43.8608 3.53973 43.9286 3.58439 44.2633 3.68243C44.0476 4.27507 43.8628 4.89517 43.8105 5.52695L42.8169 5.12609Z" fill="#353C3A"/>
<path d="M40.8613 5.44155C40.5043 5.19607 40.0937 4.94551 39.8048 4.61832C39.6174 4.40625 39.5193 4.17544 39.5324 3.89268L39.7202 3.80005C40.5108 3.97341 40.8488 4.62008 41.2992 5.2286L40.8613 5.44155Z" fill="#353C3A"/>
<path d="M39.68 6.58712C39.5313 6.5687 39.3637 6.55547 39.2193 6.5129C38.9781 6.44177 38.9393 6.34186 38.8477 6.13464C38.9505 5.9904 38.9751 5.95059 39.1385 5.8788C39.5333 5.70533 39.9143 5.79322 40.301 5.9379L39.9341 6.57146L39.68 6.58712Z" fill="#353C3A"/>
<path d="M41.6503 2.90698C41.7837 2.96466 41.9146 3.03347 41.999 3.15721C42.3373 3.65401 42.2806 4.64575 42.2192 5.2214L41.749 5.08179C41.6846 5.01121 41.6346 4.95508 41.5949 4.86697C41.3178 4.2525 41.4323 3.51848 41.6503 2.90698Z" fill="#353C3A"/>
<path d="M39.6807 6.58719L39.9348 6.57153C39.6251 7.7428 39.4581 8.92742 40.1064 10.0279C40.5692 10.8134 41.3198 11.3422 42.1069 11.7683C41.3956 11.9443 40.7245 12.1495 40.0763 12.5039C39.8482 12.1436 37.6864 11.2658 37.1181 10.8358C36.0693 10.0421 35.5506 8.98807 35.3618 7.70156C35.6772 7.60584 35.9979 7.34911 36.3035 7.20486C37.3844 6.69482 38.4996 6.56602 39.6807 6.58719Z" fill="#EBB19F"/>
<path d="M50.6375 18.8961C50.6705 18.8828 50.7047 18.8709 50.7378 18.856C51.1028 18.6924 51.9035 17.2397 52.231 16.8368C54.1035 14.5301 56.6477 13.1524 59.6616 13.2175C60.2284 13.2297 60.9077 13.2511 61.447 13.4102C61.7073 13.4867 61.7514 13.5278 61.8925 13.7542C61.8065 15.3531 59.7057 17.8801 58.5003 18.9645C56.0158 21.1999 52.9291 22.4859 49.8082 23.5539C51.4293 21.501 53.3261 19.4866 55.3552 17.8362C56.061 17.2621 59.0418 15.4378 59.258 15.0625C59.162 15 59.1488 14.9602 59.0297 14.9775C56.3345 15.3695 51.1425 20.9067 49.5303 23.0003C49.7343 21.5748 50.085 20.2286 50.6375 18.8961Z" fill="#97A898"/>
<path d="M47.2962 22.9527L47.3315 22.8605C47.2609 22.5847 46.822 22.5265 46.5642 22.4751C42.9212 21.7473 38.7942 21.1928 36.3427 18.0546C35.959 17.5635 35.2842 16.5913 35.3627 15.9745C35.8828 15.5296 37.417 15.3746 38.0828 15.3372C41.4512 15.1476 44.6319 16.9442 46.725 19.484C47.2268 20.0921 47.6193 21.041 48.1807 21.5345L48.3108 21.2924C48.3681 21.633 48.3913 21.9011 48.3417 22.247C47.937 22.1174 47.2973 21.2863 46.9169 20.9851C44.77 19.2832 41.0042 16.9685 38.1627 17.0502L38.0893 17.1504C38.797 17.7016 39.993 17.9206 40.8372 18.2134C43.3839 19.0968 46.2234 20.772 47.8465 22.9751L47.7594 23.073C47.6182 23.0409 47.4197 23.0225 47.2962 22.9527Z" fill="#97A898"/>
<path d="M54.4307 2.20508C55.7056 3.79872 56.1842 5.56968 55.9636 7.59429C55.6681 10.3141 54.1451 12.8571 52.0178 14.5465L51.9296 14.6162C52.4215 12.1894 52.7865 9.63125 53.5077 7.26787C53.6654 6.75375 54.0161 5.82542 53.7558 5.336L53.5739 5.40879C52.4634 7.16641 51.9009 12.3426 51.2249 14.647C50.0615 12.8481 50.1618 9.92316 50.5985 7.89767C51.033 5.88078 52.0057 3.68811 53.811 2.55345C54.0117 2.42762 54.2201 2.31458 54.4307 2.20508Z" fill="#97A898"/>
<path d="M44.2629 3.68239C45.0832 2.46557 45.5657 1.92178 46.9805 1.51221C47.4458 2.4949 47.8539 3.47319 48.156 4.5194C48.327 5.10961 48.6258 7.3164 48.8806 7.6436C47.9763 7.82633 47.3488 8.31277 46.8459 9.07833C46.566 9.50477 46.3469 9.99077 46.1444 10.4588C45.9205 10.0444 45.558 9.53311 45.4673 9.07424C45.556 8.94268 45.544 8.91247 45.5334 8.75014C45.445 7.39139 44.8054 6.40417 43.8101 5.52691C43.8623 4.89512 44.0472 4.27502 44.2629 3.68239Z" fill="#EBB19F"/>
<path d="M87.4029 22.7612C86.5395 22.7355 85.6793 22.783 84.8192 22.8548C82.7294 23.2763 80.2194 23.9888 78.9688 25.8688C78.3447 26.807 78.0667 27.9658 78.2884 29.0793C78.4517 29.8972 78.8895 30.6449 79.5975 31.1045C80.2525 31.5294 81.1932 31.7235 81.9596 31.5516C82.5959 31.409 83.1374 30.9963 83.4804 30.4464C83.8697 29.8221 83.9833 29.0301 83.8156 28.3165C83.712 27.8762 83.411 27.5296 83.1186 27.1928C82.6328 26.6332 82.1704 26.1006 82.6742 25.2098C83.0845 24.4856 84.0572 24.0541 84.8291 23.8759C86.0223 23.6004 87.4482 23.6847 88.5025 24.3536C89.5336 25.0081 90.1092 26.0834 90.364 27.2534C90.6783 28.7048 90.7522 30.822 89.9063 32.0894C89.139 33.2394 87.1868 33.691 84.9937 34.1983C81.8506 34.9254 78.2124 35.767 76.8581 38.9432C76.3372 40.164 76.4931 41.4172 76.6105 42.3606C76.6758 42.8851 76.7291 43.3138 76.6475 43.5879C76.6618 43.6068 76.6762 43.6254 76.6905 43.6444C76.8601 43.8728 76.9973 44.1191 77.1346 44.3658C77.2348 44.5457 77.3351 44.7258 77.4481 44.8992C78.3899 46.347 79.6603 46.9762 81.3398 47.2349C83.8741 47.6254 86.684 47.0691 88.7627 45.5291C89.259 45.1615 90.1765 44.3352 90.2746 43.6974C90.2831 43.7086 90.2915 43.7197 90.2996 43.7309L90.3099 43.7457C90.6138 44.2012 90.7222 44.6568 90.8241 45.0853C91.0383 45.9865 91.2241 46.7677 93.1396 47.1751C94.5766 47.4806 96.802 47.3258 98.0769 46.4782C98.3383 46.305 98.6073 46.0352 98.658 45.7146C98.6648 45.6724 98.6664 45.6412 98.6664 45.6076C98.6663 45.5811 98.6652 45.5532 98.6647 45.5174C98.6432 45.4971 98.6249 45.4792 98.6089 45.4636C98.5142 45.3707 98.4966 45.3533 98.3239 45.3578C98.0711 45.3643 97.8121 45.4106 97.5533 45.4568C96.8952 45.5744 96.2383 45.6918 95.6883 45.1546C94.8724 44.3578 94.888 42.5133 94.8979 41.33C94.8987 41.2386 94.8994 41.1511 94.8998 41.0684C94.9196 38.5098 94.9251 35.9511 94.9174 33.3924C94.9075 27.6078 94.7222 22.9788 87.4029 22.7612ZM90.0198 33.4414L90.3352 33.4317L90.4301 33.5638C90.5209 34.2996 90.4949 35.0396 90.469 35.7793C90.457 36.1181 90.4451 36.4568 90.4444 36.7951C90.4434 37.2413 90.4585 37.6957 90.4738 38.1529C90.5102 39.2464 90.5472 40.3574 90.3662 41.4123C90.2647 42.0084 90.0463 42.5789 89.7254 43.0916C89.0196 44.2165 87.8539 44.9161 86.5715 45.1898C85.0529 45.5139 83.8608 45.1784 82.5838 44.3594C82.5061 44.2214 82.431 44.0897 82.3587 43.9629C81.6118 42.6528 81.1659 41.8706 81.3167 40.1217C81.6008 36.8191 84.8829 35.5919 87.5772 34.5846L87.7845 34.507L87.929 34.4527C88.0301 34.4147 88.1422 34.3746 88.2605 34.3323L88.2622 34.3317C88.8277 34.1297 89.5401 33.8752 89.9273 33.5282C89.9401 33.5169 89.9526 33.5053 89.9649 33.4937C89.9833 33.4763 90.0013 33.4587 90.0198 33.4414Z" fill="#353C3A"/>
<path d="M87.8254 34.4917C87.7922 34.5041 87.759 34.5166 87.7256 34.5291L87.7846 34.507L87.8254 34.4917Z" fill="#EAE9E8"/>
<path d="M11.914 9.71832C12.4484 9.65976 13.0286 9.6795 13.5645 9.73233C15.63 9.91925 17.5348 10.9252 18.8538 12.5256C19.7345 13.6129 20.2474 14.9313 20.0868 16.341C19.9929 17.166 19.6847 17.9634 19.0153 18.4889C18.2999 19.0506 17.275 19.329 16.3732 19.2177C15.6138 19.124 14.951 18.7224 14.488 18.1159C14.0758 17.5761 13.8962 16.7724 13.997 16.1037C14.2184 14.635 15.7566 14.4999 16.733 13.7599C16.9954 13.5612 17.1055 13.3596 17.1528 13.0375C17.0931 12.6612 16.9398 12.4157 16.6867 12.143C15.7474 11.131 14.3174 10.6642 12.9634 10.6303C11.7971 10.601 10.6425 10.912 9.79585 11.7486C7.7741 13.7458 8.3287 20.049 8.33465 22.7834C9.68821 22.7961 17.4379 22.5566 18.1363 23.0708C18.2049 23.2984 18.1749 23.4303 18.1164 23.6578C17.5859 24.0205 9.68402 23.8284 8.32693 23.848L8.33807 31.6688C9.03547 31.6702 9.73607 31.6791 10.4328 31.65C15.3391 31.445 13.8702 27.9034 15.0494 26.7305C15.1729 26.6076 15.2372 26.6413 15.4077 26.6413C15.7491 27.0942 15.5951 35.5615 15.5949 36.8324C15.5986 37.1307 15.5772 37.4226 15.5527 37.7194L15.342 37.8914C15.069 37.8947 15.002 37.937 14.7886 37.7547C14.6219 36.381 14.2281 34.6384 13.2027 33.653C11.9314 32.4312 9.95917 32.6874 8.33796 32.7081C8.32858 35.042 7.81259 43.5457 9.3083 45.1671C10.1268 46.0545 11.6269 45.9373 12.2034 46.6596L12.1779 46.8175C11.8574 46.9951 11.4638 47.005 11.1047 47.0199C10.0738 47.0626 0.812093 47.04 0.303267 46.8854C0.201369 46.8545 0.24063 46.8486 0.135203 46.8621C0.115243 46.8646 0.0959418 46.8707 0.0764225 46.875L0.02481 46.7533C0.164202 46.2312 2.28465 45.8184 2.89107 45.1854C4.22026 43.7979 3.739 35.1182 3.72577 32.7257C2.79193 32.7108 0.923476 33.037 0.222213 32.4611C0.0918638 32.2065 0.0556878 32.1592 0.0851322 31.8791C0.603222 31.4158 2.97962 31.6372 3.71673 31.6349C3.72864 29.0268 3.72687 26.4186 3.71143 23.8104C2.57699 23.8316 1.05636 24.0314 0.0272399 23.4884L0 23.1634C0.707439 22.5729 2.79799 22.7899 3.71827 22.7972C3.67713 19.41 3.7261 15.3762 5.9727 12.6019C7.4597 10.7655 9.63616 9.95597 11.914 9.71832Z" fill="#353C3A"/>
<path d="M28.3383 8.00244L28.4655 8.02748C28.6387 8.23017 28.639 8.3389 28.6523 8.59718C28.7973 11.4037 28.6414 14.3007 28.6403 17.1173L28.6356 34.9362C28.6353 37.0752 28.3282 42.8295 29.0083 44.5085C29.7632 46.3723 31.5267 45.7839 32.0951 46.6595L32.0063 46.8927C31.4914 47.0931 22.6416 46.985 21.2138 47.0289C21.1008 47.0287 21.1231 47.041 21.0388 47.0076C20.8222 46.9216 20.828 46.8361 20.7373 46.6363C20.9515 45.9011 22.5247 46.1977 23.1663 45.4839C23.7224 44.8652 23.9391 44.0427 24.0408 43.2381C24.2517 41.5704 24.187 39.8569 24.1864 38.1787L24.18 31.1119L24.175 20.9927C24.1777 18.7462 24.2344 16.4863 24.1263 14.2423C24.0075 11.7744 24.0913 11.3141 21.6517 10.5591C21.4053 10.4828 21.055 10.4006 20.8723 10.2079C20.7573 10.0866 20.7916 10.0454 20.7888 9.88887L20.8914 9.90188C21.0843 9.67791 21.9702 9.62972 22.2799 9.59035C24.3988 9.32061 26.4184 8.97896 28.3383 8.00244Z" fill="#353C3A"/>
<path d="M64.3198 22.6267L64.6517 22.6685C64.6782 22.7099 64.7212 22.7697 64.7399 22.8188C64.9869 23.4631 64.8513 27.7775 64.6021 28.3646C64.9583 28.0549 65.1116 27.6174 65.3233 27.2059C66.0721 25.7513 66.9973 24.4751 68.4916 23.7116C70.0443 22.9182 72.0591 22.5049 73.7431 23.0716C74.6782 23.3862 75.4337 24.0317 75.8626 24.9234C76.3093 25.8536 76.3975 26.9485 76.038 27.9226C75.7446 28.7152 75.1558 29.4222 74.3794 29.7766C73.6438 30.1124 72.8278 30.0835 72.0834 29.7863C71.3313 29.4857 70.6939 28.9485 70.3873 28.1862C69.7962 26.72 70.5913 26.1898 71.049 24.9844C71.1383 24.7511 71.1218 24.6791 71.0192 24.4604C70.7049 24.309 70.3752 24.3737 70.0498 24.4518C65.9078 25.4451 64.9362 30.3404 64.8524 33.9935C64.8315 34.8934 64.8645 38.0475 64.8645 38.0475C64.8645 38.0475 64.8303 41.0792 64.8645 41.9501C64.9472 44.0661 65.0928 45.501 67.3557 46.1798C67.6866 46.2791 68.1078 46.3408 68.3604 46.5891C68.4277 46.6548 68.3946 46.7746 68.3935 46.8647C68.3681 46.884 68.3427 46.9045 68.3174 46.9227C68.1773 47.0191 57.638 47.0557 57.0535 46.9092L56.9829 46.6664C57.2266 45.7465 58.9977 46.2071 59.6803 45.3382C60.02 44.9057 60.1512 44.3419 60.2284 43.8088C60.6442 40.9479 60.4435 37.8564 60.4368 34.9601C60.4313 32.5606 60.5846 30.0047 60.2582 27.634C59.8049 24.3353 58.604 25.884 57.2399 24.845C57.1208 24.5846 57.1395 24.5568 57.2046 24.2737C59.5281 23.8338 62.1076 23.8141 64.2437 22.6683L64.3198 22.6267Z" fill="#353C3A"/>
</g>
<defs>
<clipPath id="clip0_13226_96">
<rect width="98.6667" height="47.5185" fill="white"/>
</clipPath>
</defs>
</svg>
